<svg height="460pt" viewBox="0 -39 460.00008 460" width="460pt" xmlns="http://www.w3.org/2000/svg"><path d="m452.160156 303.5v29.550781c-.003906 22.515625-18.253906 40.765625-40.769531 40.769531h-29.890625v-30.320312c0-22.089844 17.910156-40 40-40zm0 0" fill="#00acea"/><path d="m452.160156 146.5v157h-30.660156c-22.089844 0-40 17.910156-40 40v30.320312h-303v-30.320312c0-22.089844-17.910156-40-40-40h-30.660156v-157h30.660156c22.089844 0 40-17.910156 40-40v-30.628906h303v30.628906c0 22.089844 17.910156 40 40 40zm0 0" fill="#00efd1"/><g fill="#00acea"><path d="m452.160156 116.640625v29.859375h-30.660156c-22.089844 0-40-17.910156-40-40v-30.628906h29.890625c22.515625 0 40.769531 18.253906 40.769531 40.769531zm0 0"/><path d="m78.5 373.5v.320312h-29.890625c-22.515625-.003906-40.765625-18.253906-40.769531-40.769531v-29.550781h30.660156c22.089844 0 40 17.910156 40 40zm0 0"/><path d="m78.5 76.5v30c0 22.089844-17.910156 40-40 40h-30.660156v-29.859375c0-22.515625 18.253906-40.769531 40.769531-40.769531h29.890625zm0 0"/></g><path d="m48.609375 382h362.78125c26.890625 0 48.609375-22.058594 48.609375-48.949219v-216.410156c.015625-12.902344-5.097656-25.277344-14.21875-34.402344-9.117188-9.125-21.492188-14.246093-34.390625-14.238281h-98.390625v-36.671875c.097656-17.183594-13.742188-31.203125-30.929688-31.328125h-104.140624c-17.1875.125-31.027344 14.144531-30.929688 31.328125v36.671875h-98.390625c-12.898437-.007812-25.273437 5.113281-34.390625 14.238281-9.121094 9.125-14.234375 21.5-14.21875 34.402344v216.410156c0 26.890625 21.71875 48.949219 48.609375 48.949219zm37.390625-275.5v-22.5h287v22.5c0 26.46875 22.03125 48.5 48.5 48.5h22.5v141h-22.5c-26.46875 0-48.5 21.03125-48.5 47.5v22.5h-287v-22.5c.082031-12.621094-4.898438-24.75-13.824219-33.675781s-21.054687-13.90625-33.675781-13.824219h-22.5v-141h22.5c26.46875 0 47.5-22.03125 47.5-48.5zm-70 226.550781v-21.050781h22.5c8.378906-.085938 16.441406 3.207031 22.367188 9.132812 5.925781 5.925782 9.21875 13.988282 9.132812 22.367188v22.5h-21.390625c-18.09375-.117188-32.679687-14.855469-32.609375-32.949219zm395.390625 32.949219h-22.390625v-22.5c0-17.644531 14.855469-31.5 32.5-31.5h22.5v21.050781c.070312 18.09375-14.515625 32.832031-32.609375 32.949219zm32.609375-249.359375v22.359375h-22.5c-17.859375-.214844-32.285156-14.640625-32.5-32.5v-22.5h22.390625c8.65625-.011719 16.964844 3.421875 23.082031 9.546875 6.121094 6.125 9.546875 14.433594 9.527344 23.09375zm-281-85.3125c-.105469-8.351563 6.574219-15.210937 14.929688-15.328125h104.140624c8.355469.117188 15.035157 6.976562 14.929688 15.328125v36.671875h-134zm-114.390625 52.671875h21.390625v22.5c0 17.644531-13.855469 32.5-31.5 32.5h-22.5v-22.359375c-.019531-8.660156 3.40625-16.96875 9.527344-23.09375 6.117187-6.125 14.425781-9.558594 23.082031-9.546875zm0 0" fill="#083863"/><path d="m177.601562 270.5c2.605469 2.703125 6.746094 3.230469 9.945313 1.261719l110.421875-67.902344c3.761719-2.3125 4.9375-7.238281 2.625-11.003906-2.316406-3.765625-7.242188-4.9375-11.007812-2.625l-34.941407 21.488281-38.191406-14.539062c-2.675781-1.035157-5.699219-.5625-7.929687 1.246093-2.226563 1.808594-3.316407 4.671875-2.855469 7.503907.460937 2.832031 2.40625 5.199218 5.09375 6.203124l26.6875 10.167969-52.796875 32.46875-12.671875-13.140625c-3.070313-3.179687-8.132813-3.269531-11.3125-.203125-3.183594 3.066407-3.273438 8.132813-.207031 11.3125zm0 0" fill="#083863"/></svg>