<svg height="480pt" viewBox="-48 0 480 480" width="480pt" xmlns="http://www.w3.org/2000/svg"><path d="m360 472c8.835938 0 16-7.164062 16-16v-352h-88c-4.417969 0-8-3.582031-8-8v-88h-256c-8.835938 0-16 7.164062-16 16v432c0 8.835938 7.164062 16 16 16zm-312-240v-152c0-4.417969 3.582031-8 8-8h112c4.417969 0 8 3.582031 8 8v152c-.050781.492188-.148438.976562-.289062 1.449219.167968 2.160156.289062 4.335937.289062 6.550781h-128c0-2.214844.121094-4.390625.289062-6.550781-.140624-.472657-.238281-.957031-.289062-1.449219zm296 128" fill="#ffdaaa"/><path d="m288 104h88l-96-96v88c0 4.417969 3.582031 8 8 8zm0 0" fill="#bfa480"/><path d="m376 24c0-8.835938-7.164062-16-16-16h-80l96 96zm0 0" fill="#ffdaaa"/><path d="m108.398438 167.640625c-16.863282-1.910156-29.304688-16.65625-28.347657-33.601563.957031-16.945312 14.976563-30.195312 31.949219-30.195312s30.992188 13.25 31.949219 30.195312c.957031 16.945313-11.484375 31.691407-28.347657 33.601563 31.734376 2.007813 57.285157 30.152344 60.109376 65.808594.140624-.472657.238281-.957031.289062-1.449219v-152c0-4.417969-3.582031-8-8-8h-112c-4.417969 0-8 3.582031-8 8v152c.050781.492188.148438.976562.289062 1.449219 2.824219-35.65625 28.375-63.800781 60.109376-65.808594zm0 0" fill="#ffb655"/><path d="m144 136c.085938-17.226562-13.480469-31.425781-30.691406-32.128906-17.210938-.703125-31.890625 12.34375-33.214844 29.515625-1.320312 17.175781 11.191406 32.316406 28.304688 34.253906 1.203124-.082031 2.402343-.207031 3.601562-.207031s2.398438.125 3.601562.207031c16.140626-1.78125 28.367188-15.402344 28.398438-31.640625zm0 0" fill="#ffdaaa"/><path d="m168 240h8c0-2.214844-.121094-4.390625-.289062-6.550781-.648438 3.757812-3.894532 6.515625-7.710938 6.550781zm0 0" fill="#78b9eb"/><path d="m56 240c-3.816406-.035156-7.0625-2.792969-7.710938-6.550781-.167968 2.160156-.289062 4.335937-.289062 6.550781zm0 0" fill="#78b9eb"/><path d="m56 240h112c3.816406-.035156 7.0625-2.792969 7.710938-6.550781-2.824219-35.65625-28.375-63.800781-60.109376-65.808594-1.195312.1875-2.394531.308594-3.601562.359375-1.207031-.050781-2.40625-.171875-3.601562-.359375-31.734376 2.007813-57.285157 30.152344-60.109376 65.808594.648438 3.757812 3.894532 6.515625 7.710938 6.550781zm0 0" fill="#ffc477"/><path d="m108.398438 167.640625c1.195312.1875 2.394531.308594 3.601562.359375 1.207031-.050781 2.40625-.171875 3.601562-.359375-1.203124-.082031-2.402343-.207031-3.601562-.207031s-2.398438.125-3.601562.207031zm0 0" fill="#78b9eb"/><g fill="#231f20"><path d="m360 0h-336c-13.253906 0-24 10.746094-24 24v432c0 13.253906 10.746094 24 24 24h336c13.253906 0 24-10.746094 24-24v-432c0-13.253906-10.746094-24-24-24zm-72 27.3125 68.6875 68.6875h-68.6875zm80-3.3125v60.6875l-68.6875-68.6875h60.6875c4.417969 0 8 3.582031 8 8zm-8 440h-336c-4.417969 0-8-3.582031-8-8v-432c0-4.417969 3.582031-8 8-8h248v80c0 8.835938 7.164062 16 16 16h80v344c0 4.417969-3.582031 8-8 8zm0 0"/><path d="m184 248v-168c0-8.835938-7.164062-16-16-16h-112c-8.835938 0-16 7.164062-16 16v168zm-32-16v-16h-16v16h-48v-16h-16v16h-15.566406c3.269531-30.457031 25.03125-54.351562 51.886718-56.367188 1.230469.109376 2.398438.367188 3.679688.367188s2.449219-.257812 3.679688-.367188c26.855468 2.015626 48.617187 25.910157 51.886718 56.367188zm-64-96c-.050781-12.796875 9.949219-23.382812 22.726562-24.058594 12.78125-.679687 23.84375 8.789063 25.148438 21.515625 1.304688 12.730469-7.609375 24.246094-20.257812 26.175781-1.210938-.066406-2.402344-.199218-3.617188-.199218s-2.398438.132812-3.617188.199218c-11.6875-1.78125-20.335937-11.808593-20.382812-23.632812zm-32-56h112v109.480469c-7.417969-10.433594-17.425781-18.753907-29.039062-24.136719 12.191406-11.132812 16.292968-28.609375 10.324218-44.003906-5.96875-15.394532-20.78125-25.539063-37.292968-25.539063-16.511719 0-31.324219 10.144531-37.292969 25.539063-5.96875 15.394531-1.867188 32.871094 10.324219 44.003906-11.605469 5.382812-21.609376 13.699219-29.023438 24.128906zm0 0"/><path d="m208 136h32v16h-32zm0 0"/><path d="m264 136h80v16h-80zm0 0"/><path d="m208 168h136v16h-136zm0 0"/><path d="m208 200h96v16h-96zm0 0"/><path d="m328 200h16v16h-16zm0 0"/><path d="m208 232h136v16h-136zm0 0"/><path d="m40 272h304v16h-304zm0 0"/><path d="m40 312h304v16h-304zm0 0"/><path d="m40 352h304v16h-304zm0 0"/><path d="m208 392h80v16h-80zm0 0"/><path d="m312 392h32v16h-32zm0 0"/></g></svg>