<svg height="504pt" viewBox="-16 0 504 504" width="504pt" xmlns="http://www.w3.org/2000/svg"><path d="m417.976562 500h-310.054687c-12 0-21.726563-9.726562-21.726563-21.726562v-452.546876c0-12 9.726563-21.726562 21.726563-21.726562h310.054687c12 0 21.726563 9.726562 21.726563 21.726562v452.550782c0 11.996094-9.726563 21.722656-21.726563 21.722656zm0 0" fill="#f4efed"/><path d="m231.207031 99.5625h163.484375v26.609375h-163.484375zm0 0" fill="#ff4397"/><path d="m231.207031 160.296875h163.484375v26.609375h-163.484375zm0 0" fill="#ff4397"/><path d="m131.207031 221.03125h263.484375v26.609375h-263.484375zm0 0" fill="#fcc24c"/><path d="m131.207031 281.769531h263.484375v26.605469h-263.484375zm0 0" fill="#fcc24c"/><path d="m131.207031 342.503906h263.484375v26.609375h-263.484375zm0 0" fill="#fcc24c"/><path d="m107.921875 4h21.722656c-12 0-21.722656 9.726562-21.722656 21.726562v452.550782c0 11.996094 9.722656 21.726562 21.722656 21.726562h-21.722656c-12 0-21.726563-9.726562-21.726563-21.726562v-452.550782c0-12 9.726563-21.726562 21.726563-21.726562zm0 0" fill="#fff"/><path d="m417.976562 4h-21.722656c12 0 21.722656 9.726562 21.722656 21.726562v452.550782c0 11.996094-9.722656 21.726562-21.722656 21.726562h21.722656c12 0 21.726563-9.726562 21.726563-21.726562v-452.550782c0-12-9.726563-21.726562-21.726563-21.726562zm0 0" fill="#d6d1cf"/><path d="m417.976562 504h-310.054687c-14.1875 0-25.726563-11.539062-25.726563-25.722656v-452.550782c0-14.1875 11.539063-25.726562 25.726563-25.726562h310.054687c14.1875 0 25.726563 11.539062 25.726563 25.726562v452.550782c0 14.183594-11.539063 25.722656-25.726563 25.722656zm-310.054687-496c-9.777344 0-17.726563 7.953125-17.726563 17.726562v452.550782c0 9.773437 7.953126 17.722656 17.726563 17.722656h310.054687c9.777344 0 17.726563-7.953125 17.726563-17.722656v-452.550782c0-9.773437-7.953125-17.726562-17.726563-17.726562zm0 0" fill="#690589"/><path d="m103.574219 110.335938c-2.207031 0-4-1.792969-4-4v-24c0-2.207032 1.792969-4 4-4s4 1.792968 4 4v24c0 2.210937-1.789063 4-4 4zm0 0" fill="#690589"/><path d="m165.890625 36.808594c2.773437 0 4.972656 2.199218 4.972656 4.972656v2.546875c6.828125.808594 12.609375 3.007813 17.933594 6.363281 1.851563 1.039063 3.46875 2.773438 3.46875 5.550782 0 3.585937-2.890625 6.363281-6.476563 6.363281-1.160156 0-2.316406-.347657-3.472656-1.042969-4.046875-2.429688-7.980468-4.164062-11.914062-5.089844v22.214844c17.585937 4.394531 25.105468 11.453125 25.105468 23.832031 0 12.722657-9.949218 21.167969-24.640624 22.554688v6.945312c0 2.773438-2.199219 4.972657-4.976563 4.972657-2.773437 0-5.089844-2.199219-5.089844-4.972657v-7.171875c-8.675781-.925781-16.65625-4.050781-23.714843-9.027344-1.964844-1.269531-3.125-3.121093-3.125-5.550781 0-3.585937 2.777343-6.363281 6.363281-6.363281 1.386719 0 2.777343.464844 3.816406 1.273438 5.4375 3.933593 10.761719 6.59375 17.125 7.75v-22.789063c-16.890625-4.398437-24.757813-10.757813-24.757813-23.832031 0-12.378906 9.832032-20.941406 24.292969-22.097656v-2.429688c0-2.773438 2.3125-4.972656 5.089844-4.972656zm-4.628906 39.449218v-20.476562c-7.402344.695312-11.105469 4.628906-11.105469 9.71875 0 4.859375 2.199219 7.867188 11.105469 10.757812zm9.140625 16.082032v21.054687c7.402344-.808593 11.453125-4.511719 11.453125-10.066406 0-5.089844-2.546875-8.214844-11.453125-10.988281zm0 0" fill="#690589"/><path d="m355.039062 471.148438-57.683593-54.679688 17.167969-18.109375 41.046874 38.914063 96.503907-85.902344 16.589843 18.640625zm0 0" fill="#7bac51"/><path d="m355.039062 475.148438c-.992187 0-1.980468-.367188-2.75-1.09375l-57.683593-54.683594c-.769531-.730469-1.21875-1.734375-1.246094-2.796875-.03125-1.058594.363281-2.085938 1.09375-2.855469l17.167969-18.109375c.726562-.769531 1.734375-1.21875 2.792968-1.246094 1.113282-.027343 2.089844.363281 2.859376 1.09375l38.382812 36.386719 93.757812-83.457031c1.652344-1.46875 4.179688-1.324219 5.648438.328125l16.589844 18.636718c.707031.792969 1.066406 1.832032 1.003906 2.890626-.058594 1.058593-.539062 2.050781-1.332031 2.753906l-113.625 101.144531c-.757813.671875-1.710938 1.007813-2.660157 1.007813zm-52.027343-58.832032 52.113281 49.402344 107.894531-96.039062-11.273437-12.660157-93.515625 83.242188c-1.550781 1.378906-3.90625 1.34375-5.414063-.085938l-38.144531-36.160156zm0 0" fill="#690589"/><path d="m394.691406 130.171875h-163.484375c-2.207031 0-4-1.792969-4-4v-26.609375c0-2.207031 1.792969-4 4-4h163.484375c2.207032 0 4 1.792969 4 4v26.609375c0 2.207031-1.792968 4-4 4zm-159.484375-8h155.484375v-18.609375h-155.484375zm0 0" fill="#690589"/><path d="m231.207031 38.824219h163.484375v26.609375h-163.484375zm0 0" fill="#ff4397"/><g fill="#690589"><path d="m394.691406 69.433594h-163.484375c-2.207031 0-4-1.792969-4-4v-26.609375c0-2.207031 1.792969-4 4-4h163.484375c2.207032 0 4 1.792969 4 4v26.609375c0 2.207031-1.792968 4-4 4zm-159.484375-8h155.484375v-18.609375h-155.484375zm0 0"/><path d="m394.691406 190.90625h-163.484375c-2.207031 0-4-1.792969-4-4v-26.609375c0-2.207031 1.792969-4 4-4h163.484375c2.207032 0 4 1.792969 4 4v26.605469c0 2.210937-1.792968 4.003906-4 4.003906zm-159.484375-8h155.484375v-18.609375h-155.484375zm0 0"/><path d="m394.691406 251.640625h-263.484375c-2.207031 0-4-1.792969-4-4v-26.609375c0-2.207031 1.792969-4 4-4h263.484375c2.207032 0 4 1.792969 4 4v26.609375c0 2.210937-1.792968 4-4 4zm-259.484375-8h255.484375v-18.609375h-255.484375zm0 0"/><path d="m394.691406 312.375h-263.484375c-2.207031 0-4-1.789062-4-4v-26.605469c0-2.210937 1.792969-4 4-4h263.484375c2.207032 0 4 1.789063 4 4v26.605469c0 2.210938-1.792968 4-4 4zm-259.484375-8h255.484375v-18.605469h-255.484375zm0 0"/><path d="m394.691406 373.113281h-263.484375c-2.207031 0-4-1.792969-4-4v-26.609375c0-2.207031 1.792969-4 4-4h263.484375c2.207032 0 4 1.792969 4 4v26.609375c0 2.207031-1.792968 4-4 4zm-259.484375-8h255.484375v-18.609375h-255.484375zm0 0"/></g><path d="m86.195312 471.59375h164.386719v28.40625h-164.386719zm0 0" fill="#7bac51"/><path d="m226.808594 471.59375h23.777344v28.40625h-23.777344zm0 0" fill="#5d8e33"/><path d="m86.195312 471.59375h23.773438v28.40625h-23.773438zm0 0" fill="#99ca6f"/><path d="m250.582031 504h-164.386719c-2.210937 0-4-1.792969-4-4v-28.40625c0-2.210938 1.789063-4 4-4h164.386719c2.207031 0 4 1.789062 4 4v28.40625c0 2.207031-1.792969 4-4 4zm-160.386719-8h156.386719v-20.40625h-156.386719zm0 0" fill="#690589"/><path d="m86.195312 443.265625h164.386719v28.410156h-164.386719zm0 0" fill="#7bac51"/><path d="m226.808594 443.265625h23.777344v28.410156h-23.777344zm0 0" fill="#5d8e33"/><path d="m86.195312 443.265625h23.773438v28.410156h-23.773438zm0 0" fill="#99ca6f"/><path d="m250.582031 475.675781h-164.386719c-2.210937 0-4-1.792969-4-4v-28.410156c0-2.207031 1.789063-4 4-4h164.386719c2.207031 0 4 1.792969 4 4v28.410156c0 2.207031-1.792969 4-4 4zm-160.386719-8h156.386719v-20.410156h-156.386719zm0 0" fill="#690589"/><path d="m86.195312 414.941406h164.386719v28.40625h-164.386719zm0 0" fill="#7bac51"/><path d="m226.808594 414.9375h23.777344v28.410156h-23.777344zm0 0" fill="#5d8e33"/><path d="m86.195312 414.9375h23.773438v28.410156h-23.773438zm0 0" fill="#99ca6f"/><path d="m250.582031 447.347656h-164.386719c-2.210937 0-4-1.792968-4-4v-28.40625c0-2.210937 1.789063-4 4-4h164.386719c2.207031 0 4 1.789063 4 4v28.40625c0 2.207032-1.792969 4-4 4zm-160.386719-8h156.386719v-20.40625h-156.386719zm0 0" fill="#690589"/><path d="m86.195312 386.613281h164.386719v28.410157h-164.386719zm0 0" fill="#7bac51"/><path d="m226.808594 386.613281h23.777344v28.40625h-23.777344zm0 0" fill="#5d8e33"/><path d="m86.195312 386.613281h23.773438v28.40625h-23.773438zm0 0" fill="#99ca6f"/><path d="m250.582031 419.023438h-164.386719c-2.210937 0-4-1.792969-4-4v-28.410157c0-2.207031 1.789063-4 4-4h164.386719c2.207031 0 4 1.792969 4 4v28.410157c0 2.207031-1.792969 4-4 4zm-160.386719-8h156.386719v-20.410157h-156.386719zm0 0" fill="#690589"/><path d="m86.195312 358.285156h164.386719v28.410156h-164.386719zm0 0" fill="#7bac51"/><path d="m226.808594 358.285156h23.777344v28.410156h-23.777344zm0 0" fill="#5d8e33"/><path d="m86.195312 358.285156h23.773438v28.410156h-23.773438zm0 0" fill="#99ca6f"/><path d="m250.582031 390.695312h-164.386719c-2.210937 0-4-1.792968-4-4v-28.40625c0-2.210937 1.789063-4 4-4h164.386719c2.207031 0 4 1.789063 4 4v28.40625c0 2.207032-1.792969 4-4 4zm-160.386719-8h156.386719v-20.40625h-156.386719zm0 0" fill="#690589"/><path d="m4 471.59375h164.390625v28.40625h-164.390625zm0 0" fill="#7bac51"/><path d="m144.613281 471.59375h23.773438v28.40625h-23.773438zm0 0" fill="#5d8e33"/><path d="m4 471.59375h23.773438v28.40625h-23.773438zm0 0" fill="#99ca6f"/><path d="m168.386719 504h-164.386719c-2.207031 0-4-1.792969-4-4v-28.40625c0-2.210938 1.792969-4 4-4h164.386719c2.210937 0 4 1.789062 4 4v28.40625c0 2.207031-1.789063 4-4 4zm-160.386719-8h156.386719v-20.40625h-156.386719zm0 0" fill="#690589"/><path d="m4 443.183594h164.390625v28.410156h-164.390625zm0 0" fill="#7bac51"/><path d="m144.613281 443.183594h23.773438v28.410156h-23.773438zm0 0" fill="#5d8e33"/><path d="m4 443.183594h23.773438v28.410156h-23.773438zm0 0" fill="#99ca6f"/><path d="m168.386719 475.59375h-164.386719c-2.207031 0-4-1.792969-4-4v-28.410156c0-2.207032 1.792969-4 4-4h164.386719c2.210937 0 4 1.792968 4 4v28.410156c0 2.207031-1.789063 4-4 4zm-160.386719-8h156.386719v-20.410156h-156.386719zm0 0" fill="#690589"/><path d="m4 414.941406h164.390625v28.40625h-164.390625zm0 0" fill="#7bac51"/><path d="m144.613281 414.941406h23.773438v28.40625h-23.773438zm0 0" fill="#5d8e33"/><path d="m4 414.941406h23.773438v28.40625h-23.773438zm0 0" fill="#99ca6f"/><path d="m168.386719 447.347656h-164.386719c-2.207031 0-4-1.792968-4-4v-28.40625c0-2.210937 1.792969-4 4-4h164.386719c2.210937 0 4 1.789063 4 4v28.40625c0 2.207032-1.789063 4-4 4zm-160.386719-8h156.386719v-20.40625h-156.386719zm0 0" fill="#690589"/></svg>