<svg height="504pt" viewBox="0 -56 504 504" width="504pt" xmlns="http://www.w3.org/2000/svg"><path d="m482.300781 322.992188h-460.601562c-9.773438 0-17.699219-7.925782-17.699219-17.699219v-283.59375c0-9.773438 7.925781-17.699219 17.699219-17.699219h460.601562c9.773438 0 17.699219 7.925781 17.699219 17.699219v283.59375c0 9.773437-7.925781 17.699219-17.699219 17.699219zm0 0" fill="#ff4397"/><path d="m52.035156 28.9375h139.480469v28.808594h-139.480469zm0 0" fill="#7bac51"/><path d="m52.035156 76.625h199.480469v28.808594h-199.480469zm0 0" fill="#7bac51"/><path d="m222.957031 192.355469c-.785156 0-1.574219-.226563-2.265625-.707031l-60.320312-41.558594-68.484375 31.890625c-2 .929687-4.378907.0625-5.3125-1.9375-.933594-2.003907-.066407-4.382813 1.9375-5.316407l70.554687-32.859374c1.285156-.597657 2.792969-.472657 3.960938.335937l59.015625 40.660156 71.800781-97.222656c1.199219-1.621094 3.417969-2.097656 5.179688-1.109375l66.332031 37.289062 67.511719-101.53125c1.226562-1.839843 3.707031-2.339843 5.546874-1.113281 1.839844 1.21875 2.339844 3.703125 1.117188 5.542969l-69.570312 104.625c-1.160157 1.742188-3.46875 2.292969-5.289063 1.269531l-66.492187-37.375-72.003907 97.492188c-.78125 1.0625-1.992187 1.625-3.21875 1.625zm0 0" fill="#690589"/><path d="m482.300781 4h-20c9.773438 0 17.699219 7.925781 17.699219 17.699219v283.59375c0 9.773437-7.925781 17.699219-17.699219 17.699219h20c9.773438 0 17.699219-7.925782 17.699219-17.699219v-283.59375c0-9.773438-7.925781-17.699219-17.699219-17.699219zm0 0" fill="#e12579"/><path d="m21.699219 322.992188h20c-9.773438 0-17.699219-7.925782-17.699219-17.699219v-283.59375c0-9.773438 7.925781-17.699219 17.699219-17.699219h-20c-9.773438 0-17.699219 7.925781-17.699219 17.699219v283.59375c0 9.773437 7.925781 17.699219 17.699219 17.699219zm0 0" fill="#ff61b5"/><path d="m413.800781 388.710938h-323.601562v-23.707032c0-9.777344 7.921875-17.699218 17.699219-17.699218h288.203124c9.777344 0 17.699219 7.921874 17.699219 17.699218zm0 0" fill="#7bac51"/><path d="m396.101562 347.304688h-20c9.777344 0 17.699219 7.921874 17.699219 17.699218v23.707032h20v-23.707032c0-9.777344-7.921875-17.699218-17.699219-17.699218zm0 0" fill="#5d8e33"/><path d="m107.898438 347.304688h20c-9.777344 0-17.699219 7.921874-17.699219 17.699218v23.707032h-20v-23.707032c0-9.777344 7.921875-17.699218 17.699219-17.699218zm0 0" fill="#99ca6f"/><path d="m157.007812 322.992188h189.984376v24.3125h-189.984376zm0 0" fill="#5d8e33"/><g fill="#690589"><path d="m20 78.40625c-2.207031 0-4-1.789062-4-4v-24c0-2.207031 1.792969-4 4-4s4 1.792969 4 4v24c0 2.210938-1.792969 4-4 4zm0 0"/><path d="m413.800781 392.710938h-323.601562c-2.210938 0-4-1.789063-4-4v-23.707032c0-11.964844 9.734375-21.703125 21.699219-21.703125h288.203124c11.964844 0 21.699219 9.734375 21.699219 21.703125v23.707032c0 2.210937-1.789062 4-4 4zm-319.601562-8h315.601562v-19.707032c0-7.554687-6.144531-13.703125-13.699219-13.703125h-288.203124c-7.554688 0-13.699219 6.148438-13.699219 13.703125zm0 0"/><path d="m346.992188 351.304688h-189.984376c-2.210937 0-4-1.792969-4-4v-24.3125c0-2.207032 1.789063-4 4-4h189.984376c2.207031 0 4 1.792968 4 4v24.3125c0 2.207031-1.789063 4-4 4zm-185.984376-8h181.984376v-16.3125h-181.984376zm0 0"/><path d="m482.300781 326.992188h-460.601562c-11.964844 0-21.699219-9.734376-21.699219-21.703126v-283.589843c0-11.964844 9.734375-21.699219 21.699219-21.699219h460.601562c11.964844 0 21.699219 9.734375 21.699219 21.699219v283.59375c0 11.964843-9.734375 21.699219-21.699219 21.699219zm-460.601562-318.992188c-7.554688 0-13.699219 6.144531-13.699219 13.699219v283.59375c0 7.554687 6.144531 13.699219 13.699219 13.699219h460.601562c7.554688 0 13.699219-6.144532 13.699219-13.699219v-283.59375c0-7.554688-6.144531-13.699219-13.699219-13.699219zm0 0"/></g><path d="m207.410156 220.023438h40.160156v72.21875h-40.160156zm0 0" fill="#fcc24c"/><path d="m247.570312 296.238281h-40.160156c-2.207031 0-4-1.789062-4-4v-72.21875c0-2.207031 1.792969-4 4-4h40.160156c2.210938 0 4 1.792969 4 4v72.21875c0 2.210938-1.789062 4-4 4zm-36.15625-8h32.160157v-64.21875h-32.160157zm0 0" fill="#690589"/><path d="m276.980469 140.019531h40.160156v152.21875h-40.160156zm0 0" fill="#fcc24c"/><path d="m317.140625 296.238281h-40.160156c-2.207031 0-4-1.789062-4-4v-152.21875c0-2.207031 1.792969-4 4-4h40.160156c2.210937 0 4 1.792969 4 4v152.21875c0 2.210938-1.789063 4-4 4zm-36.160156-8h32.160156v-144.21875h-32.160156zm0 0" fill="#690589"/><path d="m346.550781 180.019531h40.160157v112.21875h-40.160157zm0 0" fill="#fcc24c"/><path d="m386.710938 296.238281h-40.160157c-2.207031 0-4-1.789062-4-4v-112.21875c0-2.207031 1.792969-4 4-4h40.160157c2.207031 0 4 1.792969 4 4v112.21875c0 2.210938-1.792969 4-4 4zm-36.160157-8h32.160157v-104.21875h-32.160157zm0 0" fill="#690589"/><path d="m416.121094 80.019531h40.160156v212.21875h-40.160156zm0 0" fill="#fcc24c"/><path d="m456.28125 296.238281h-40.160156c-2.210938 0-4-1.789062-4-4v-212.21875c0-2.207031 1.789062-4 4-4h40.160156c2.207031 0 4 1.792969 4 4v212.21875c0 2.210938-1.792969 4-4 4zm-36.160156-8h32.160156v-204.21875h-32.160156zm0 0" fill="#690589"/><path d="m169.890625 388.710938h-155.027344c-6 0-10.863281-4.863282-10.863281-10.859376v-226.277343c0-6 4.863281-10.859375 10.863281-10.859375h155.027344c6 0 10.863281 4.863281 10.863281 10.859375v226.277343c0 6-4.863281 10.859376-10.863281 10.859376zm0 0" fill="#f4efed"/><path d="m169.890625 140.710938h-20c6 0 10.863281 4.863281 10.863281 10.863281v226.277343c0 5.996094-4.863281 10.859376-10.863281 10.859376h20c6 0 10.863281-4.863282 10.863281-10.859376v-226.277343c0-6-4.863281-10.863281-10.863281-10.863281zm0 0" fill="#d6d1cf"/><path d="m14.863281 140.710938h20c-6 0-10.863281 4.863281-10.863281 10.863281v226.277343c0 5.996094 4.863281 10.859376 10.863281 10.859376h-20c-6 0-10.863281-4.863282-10.863281-10.859376v-226.277343c0-6 4.863281-10.863281 10.863281-10.863281zm0 0" fill="#fff"/><path d="m169.890625 392.710938h-155.027344c-8.199219 0-14.863281-6.664063-14.863281-14.859376v-226.277343c0-8.195313 6.664062-14.863281 14.863281-14.863281h155.027344c8.199219 0 14.863281 6.667968 14.863281 14.863281v226.277343c0 8.195313-6.667968 14.859376-14.863281 14.859376zm-155.027344-247.996094c-3.785156 0-6.863281 3.078125-6.863281 6.859375v226.277343c0 3.785157 3.078125 6.863282 6.863281 6.863282h155.027344c3.785156 0 6.863281-3.078125 6.863281-6.863282v-226.277343c0-3.785157-3.078125-6.863281-6.863281-6.863281h-155.027344zm0 0" fill="#690589"/><path d="m34.199219 297.523438h17.835937v37.625h-17.835937zm0 0" fill="#fcc24c"/><path d="m52.035156 339.148438h-17.835937c-2.210938 0-4-1.792969-4-4v-37.625c0-2.207032 1.789062-4 4-4h17.835937c2.207032 0 4 1.792968 4 4v37.625c0 2.207031-1.792968 4-4 4zm-13.835937-8h9.835937v-29.625h-9.835937zm0 0" fill="#690589"/><path d="m67.039062 257.523438h17.835938v77.625h-17.835938zm0 0" fill="#fcc24c"/><path d="m84.875 339.148438h-17.835938c-2.207031 0-4-1.792969-4-4v-77.625c0-2.207032 1.792969-4 4-4h17.835938c2.210938 0 4 1.792968 4 4v77.625c0 2.207031-1.789062 4-4 4zm-13.835938-8h9.835938v-69.625h-9.835938zm0 0" fill="#690589"/><path d="m99.878906 277.523438h17.835938v57.625h-17.835938zm0 0" fill="#fcc24c"/><path d="m117.714844 339.148438h-17.835938c-2.207031 0-4-1.792969-4-4v-57.625c0-2.207032 1.792969-4 4-4h17.835938c2.210937 0 4 1.792968 4 4v57.625c0 2.207031-1.789063 4-4 4zm-13.835938-8h9.835938v-49.625h-9.835938zm0 0" fill="#690589"/><path d="m132.71875 237.523438h17.835938v97.625h-17.835938zm0 0" fill="#fcc24c"/><path d="m150.554688 339.148438h-17.835938c-2.207031 0-4-1.792969-4-4v-97.625c0-2.207032 1.792969-4 4-4h17.835938c2.210937 0 4 1.792968 4 4v97.625c0 2.207031-1.789063 4-4 4zm-13.835938-8h9.835938v-89.625h-9.835938zm0 0" fill="#690589"/><path d="m41.695312 271.523438c-.769531 0-1.554687-.222657-2.242187-.691407-1.828125-1.238281-2.304687-3.726562-1.0625-5.554687l34.253906-50.484375c.675781-.996094 1.765625-1.632813 2.964844-1.738281 1.207031-.09375 2.382813.339843 3.21875 1.203124l29.746094 30.714844 29.804687-41.824218c1.28125-1.800782 3.78125-2.21875 5.578125-.9375 1.800781 1.28125 2.21875 3.777343.9375 5.578124l-32.589843 45.738282c-.691407.96875-1.773438 1.582031-2.957032 1.667968-1.195312.089844-2.351562-.351562-3.175781-1.207031l-29.667969-30.632812-31.496094 46.414062c-.773437 1.136719-2.03125 1.753907-3.3125 1.753907zm0 0" fill="#690589"/><path d="m92.375 167.496094h-58.175781c-2.210938 0-4-1.792969-4-4 0-2.207032 1.789062-4 4-4h58.175781c2.210938 0 4 1.792968 4 4 0 2.207031-1.789062 4-4 4zm0 0" fill="#690589"/><path d="m150.554688 188.480469h-116.355469c-2.210938 0-4-1.792969-4-4s1.789062-4 4-4h116.355469c2.210937 0 4 1.792969 4 4s-1.789063 4-4 4zm0 0" fill="#690589"/><path d="m34.199219 352.445312h116.355469v17.5625h-116.355469zm0 0" fill="#ff4397"/><path d="m150.554688 374.007812h-116.355469c-2.210938 0-4-1.792968-4-4v-17.5625c0-2.210937 1.789062-4 4-4h116.355469c2.210937 0 4 1.789063 4 4v17.5625c0 2.210938-1.789063 4-4 4zm-112.355469-8h108.355469v-9.5625h-108.355469zm0 0" fill="#690589"/><path d="m191.515625 61.746094h-139.480469c-2.210937 0-4-1.792969-4-4v-28.808594c0-2.207031 1.789063-4 4-4h139.480469c2.207031 0 4 1.792969 4 4v28.808594c0 2.210937-1.789063 4-4 4zm-135.480469-8h131.480469v-20.808594h-131.480469zm0 0" fill="#690589"/><path d="m251.515625 109.429688h-199.480469c-2.210937 0-4-1.792969-4-4v-28.804688c0-2.210938 1.789063-4 4-4h199.480469c2.207031 0 4 1.789062 4 4v28.804688c0 2.210937-1.789063 4-4 4zm-195.480469-8h191.480469v-20.804688h-191.480469zm0 0" fill="#690589"/></svg>