<svg height="504pt" viewBox="0 -56 504.00004 504" width="504pt" xmlns="http://www.w3.org/2000/svg"><path d="m482.300781 322.992188h-460.601562c-9.773438 0-17.699219-7.925782-17.699219-17.699219v-283.59375c0-9.773438 7.925781-17.699219 17.699219-17.699219h460.601562c9.773438 0 17.699219 7.925781 17.699219 17.699219v283.59375c0 9.773437-7.925781 17.699219-17.699219 17.699219zm0 0" fill="#f4efed"/><path d="m482.300781 4h-20c9.773438 0 17.699219 7.925781 17.699219 17.699219v283.59375c0 9.773437-7.925781 17.699219-17.699219 17.699219h20c9.773438 0 17.699219-7.925782 17.699219-17.699219v-283.59375c0-9.773438-7.925781-17.699219-17.699219-17.699219zm0 0" fill="#d6d1cf"/><path d="m129.046875 139.578125h370.953125v127.398437h-370.953125zm0 0" fill="#ff4397"/><path d="m481.148438 139.578125h18.851562v127.398437h-18.851562zm0 0" fill="#e12579"/><path d="m24.851562 120.640625h86.195313v26.585937h-86.195313zm0 0" fill="#fcc24c"/><path d="m24.851562 168.292969h86.195313v26.585937h-86.195313zm0 0" fill="#fcc24c"/><path d="m24.851562 215.945312h86.195313v26.585938h-86.195313zm0 0" fill="#fcc24c"/><path d="m24.851562 263.597656h86.195313v26.585938h-86.195313zm0 0" fill="#fcc24c"/><path d="m4 21.699219v73.011719h496v-73.011719c0-9.773438-7.925781-17.699219-17.699219-17.699219h-460.601562c-9.773438 0-17.699219 7.925781-17.699219 17.699219zm0 0" fill="#7bac51"/><path d="m21.699219 322.992188h20c-9.773438 0-17.699219-7.925782-17.699219-17.699219v-283.59375c0-9.773438 7.925781-17.699219 17.699219-17.699219h-20c-9.773438 0-17.699219 7.925781-17.699219 17.699219v283.59375c0 9.773437 7.925781 17.699219 17.699219 17.699219zm0 0" fill="#fff"/><path d="m482.300781 4h-20c9.773438 0 17.699219 7.925781 17.699219 17.699219v73.011719h20v-73.011719c0-9.773438-7.925781-17.699219-17.699219-17.699219zm0 0" fill="#5d8e33"/><path d="m21.699219 4h20c-9.773438 0-17.699219 7.925781-17.699219 17.699219v73.011719h-20v-73.011719c0-9.773438 7.925781-17.699219 17.699219-17.699219zm0 0" fill="#99ca6f"/><path d="m500 98.710938h-496c-2.207031 0-4-1.792969-4-4v-73.011719c0-11.964844 9.734375-21.699219 21.699219-21.699219h460.601562c11.964844 0 21.699219 9.734375 21.699219 21.699219v73.011719c0 2.207031-1.792969 4-4 4zm-492-8h488v-69.011719c0-7.554688-6.144531-13.699219-13.699219-13.699219h-460.601562c-7.554688 0-13.699219 6.144531-13.699219 13.699219zm0 0" fill="#690589"/><path d="m413.800781 388.710938h-323.601562v-23.707032c0-9.777344 7.921875-17.699218 17.699219-17.699218h288.203124c9.777344 0 17.699219 7.921874 17.699219 17.699218zm0 0" fill="#7bac51"/><path d="m396.101562 347.304688h-20c9.777344 0 17.699219 7.921874 17.699219 17.699218v23.710938h20v-23.710938c0-9.777344-7.921875-17.699218-17.699219-17.699218zm0 0" fill="#5d8e33"/><path d="m107.898438 347.304688h20c-9.777344 0-17.699219 7.921874-17.699219 17.699218v23.710938h-20v-23.710938c0-9.777344 7.921875-17.699218 17.699219-17.699218zm0 0" fill="#99ca6f"/><path d="m157.007812 322.992188h189.984376v24.3125h-189.984376zm0 0" fill="#5d8e33"/><g fill="#690589"><path d="m20 78.40625c-2.207031 0-4-1.789062-4-4v-24c0-2.207031 1.792969-4 4-4s4 1.792969 4 4v24c0 2.210938-1.792969 4-4 4zm0 0"/><path d="m413.800781 392.710938h-323.601562c-2.210938 0-4-1.789063-4-4v-23.707032c0-11.964844 9.734375-21.699218 21.699219-21.699218h288.203124c11.964844 0 21.703126 9.734374 21.703126 21.699218v23.707032c-.003907 2.210937-1.792969 4-4.003907 4zm-319.601562-8h315.601562v-19.707032c0-7.554687-6.144531-13.699218-13.699219-13.699218h-288.203124c-7.554688 0-13.699219 6.144531-13.699219 13.699218zm0 0"/><path d="m346.992188 351.304688h-189.984376c-2.210937 0-4-1.792969-4-4v-24.3125c0-2.207032 1.789063-4 4-4h189.984376c2.210937 0 4 1.792968 4 4v24.3125c0 2.207031-1.789063 4-4 4zm-185.984376-8h181.984376v-16.3125h-181.984376zm0 0"/><path d="m482.300781 326.992188h-353.253906c-2.207031 0-4-1.792969-4-4v-228.28125c0-2.207032 1.792969-4 4-4h370.953125c2.207031 0 4 1.792968 4 4v210.582031c0 11.964843-9.734375 21.699219-21.699219 21.699219zm-349.253906-8h349.253906c7.554688 0 13.699219-6.144532 13.699219-13.699219v-206.582031h-362.953125zm0 0"/><path d="m482.300781 326.992188h-460.601562c-11.964844 0-21.699219-9.734376-21.699219-21.699219v-283.59375c0-11.964844 9.734375-21.699219 21.699219-21.699219h460.601562c11.964844 0 21.699219 9.734375 21.699219 21.699219v283.59375c0 11.964843-9.734375 21.699219-21.699219 21.699219zm-460.601562-318.992188c-7.554688 0-13.699219 6.144531-13.699219 13.699219v283.59375c0 7.554687 6.144531 13.699219 13.699219 13.699219h460.601562c7.554688 0 13.699219-6.144532 13.699219-13.699219v-283.59375c0-7.554688-6.144531-13.699219-13.699219-13.699219zm0 0"/><path d="m157.902344 270.980469c-.953125 0-1.910156-.339844-2.667969-1.019531l-28.855469-25.8125c-1.644531-1.46875-1.785156-4-.3125-5.644532 1.472656-1.648437 4-1.789062 5.648438-.316406l26.1875 23.425781 52.964844-47.378906c1.519531-1.359375 3.8125-1.359375 5.332031 0l25.910156 23.171875 73.90625-66.109375c1.515625-1.355469 3.8125-1.355469 5.332031 0l49.667969 44.429687 88.460937-79.128906c1.515626-1.359375 3.816407-1.359375 5.332032 0l37.855468 33.863282c1.648438 1.472656 1.792969 4.003906.316407 5.648437-1.46875 1.644531-4.003907 1.789063-5.644531.316406l-35.191407-31.480469-88.460937 79.128907c-1.519532 1.359375-3.816406 1.359375-5.332032 0l-49.671874-44.429688-73.902344 66.113281c-1.519532 1.355469-3.816406 1.355469-5.335938 0l-25.90625-23.175781-52.964844 47.378907c-.761718.679687-1.714843 1.019531-2.667968 1.019531zm0 0"/><path d="m111.046875 151.226562h-86.195313c-2.210937 0-4-1.792968-4-4v-26.585937c0-2.207031 1.789063-4 4-4h86.195313c2.210937 0 4 1.792969 4 4v26.585937c0 2.210938-1.789063 4-4 4zm-82.195313-8h78.195313v-18.585937h-78.195313zm0 0"/><path d="m111.046875 198.878906h-86.195313c-2.210937 0-4-1.792968-4-4v-26.585937c0-2.207031 1.789063-4 4-4h86.195313c2.210937 0 4 1.792969 4 4v26.585937c0 2.210938-1.789063 4-4 4zm-82.195313-8h78.195313v-18.585937h-78.195313zm0 0"/><path d="m111.046875 246.53125h-86.195313c-2.210937 0-4-1.792969-4-4v-26.585938c0-2.210937 1.789063-4 4-4h86.195313c2.210937 0 4 1.789063 4 4v26.585938c0 2.207031-1.789063 4-4 4zm-82.195313-8h78.195313v-18.585938h-78.195313zm0 0"/><path d="m111.046875 294.183594h-86.195313c-2.210937 0-4-1.792969-4-4v-26.585938c0-2.207031 1.789063-4 4-4h86.195313c2.210937 0 4 1.792969 4 4v26.585938c0 2.210937-1.789063 4-4 4zm-82.195313-8h78.195313v-18.585938h-78.195313zm0 0"/><path d="m500 270.980469h-370.953125c-2.207031 0-4-1.792969-4-4v-127.402344c0-2.207031 1.792969-4 4-4h370.953125c2.207031 0 4 1.792969 4 4v127.402344c0 2.207031-1.792969 4-4 4zm-366.953125-8h362.953125v-119.402344h-362.953125zm0 0"/><path d="m465.824219 70.15625h-427.648438c-2.207031 0-4-1.789062-4-4v-36.460938c0-2.207031 1.792969-4 4-4h427.648438c2.207031 0 4 1.792969 4 4v36.460938c0 2.210938-1.789063 4-4 4zm-423.648438-8h419.648438v-28.460938h-419.648438zm0 0"/></g><path d="m451.660156 224.621094-7.929687 29.027344-21.078125-58.039063 58.039062 21.078125zm0 0" fill="#f4efed"/><path d="m443.726562 257.648438c-1.675781 0-3.179687-1.046876-3.757812-2.632813l-21.078125-58.039063c-.527344-1.460937-.167969-3.09375.933594-4.195312 1.101562-1.097656 2.738281-1.460938 4.195312-.929688l58.039063 21.078126c1.636718.59375 2.703125 2.179687 2.628906 3.921874-.070312 1.742188-1.257812 3.234376-2.941406 3.695313l-26.828125 7.332031-7.328125 26.828125c-.460938 1.679688-1.957032 2.871094-3.695313 2.941407-.054687 0-.109375 0-.167969 0zm-14.390624-55.355469 13.855468 38.15625 4.613282-16.882813c.375-1.363281 1.4375-2.429687 2.804687-2.804687l16.878906-4.613281zm0 0" fill="#690589"/></svg>